<?xml version="1.0" encoding="UTF-8" standalone="no"?>
<!-- Created with Inkscape (http://www.inkscape.org/) -->

<svg
   width="41"
   height="61"
   id="svg2"
   version="1.1"
   xmlns="http://www.w3.org/2000/svg"
   xmlns:svg="http://www.w3.org/2000/svg"
   xmlns:rdf="http://www.w3.org/1999/02/22-rdf-syntax-ns#"
   xmlns:cc="http://creativecommons.org/ns#"
   xmlns:dc="http://purl.org/dc/elements/1.1/">
  <title
     id="title7376">Mini Playing Card Set</title>
  <defs
     id="defs4" />
  <metadata
     id="metadata7">
    <rdf:RDF>
      <cc:Work
         rdf:about="">
        <dc:format>image/svg+xml</dc:format>
        <dc:type
           rdf:resource="http://purl.org/dc/dcmitype/StillImage" />
        <dc:title>Mini Playing Card Set</dc:title>
        <dc:date>2012-01-23</dc:date>
        <dc:creator>
          <cc:Agent>
            <dc:title>Daniel Scott Fowler</dc:title>
          </cc:Agent>
        </dc:creator>
        <dc:rights>
          <cc:Agent>
            <dc:title>Daniel Scot Fowler</dc:title>
          </cc:Agent>
        </dc:rights>
        <dc:publisher>
          <cc:Agent>
            <dc:title>Eye Internet Limited</dc:title>
          </cc:Agent>
        </dc:publisher>
        <dc:identifier>http://tekeye.biz/download/simple_cards.svg</dc:identifier>
        <dc:source>http://tekeye.biz/</dc:source>
        <dc:subject>
          <rdf:Bag>
            <rdf:li>playing</rdf:li>
            <rdf:li>cards</rdf:li>
            <rdf:li>suits</rdf:li>
            <rdf:li>diamond</rdf:li>
            <rdf:li>heart</rdf:li>
            <rdf:li>club</rdf:li>
            <rdf:li>spade</rdf:li>
            <rdf:li>joker</rdf:li>
          </rdf:Bag>
        </dc:subject>
        <dc:description>A set of mini or micro playing cards suitable for the basis of cards for mobile device card games.</dc:description>
      </cc:Work>
    </rdf:RDF>
  </metadata>
  <g
     id="layer1"
     transform="translate(-759.5,-911.86212)">
    <g
       id="g7395">
      <rect
         rx="10"
         ry="12"
         y="912.36212"
         x="760"
         height="60"
         width="40"
         id="rect3050-09-54"
         style="fill:#ffffff;fill-opacity:1;stroke:#000000;stroke-width:1;stroke-linejoin:round;stroke-miterlimit:4;stroke-dasharray:none;stroke-opacity:1" />
      <g
         transform="matrix(0.43753064,0,0,0.43753064,569.87716,641.57801)"
         id="g5329">
        <path
           id="path5-9"
           d="m 472.66484,640.33439 c 0.1196,0.0187 0.15527,-0.0682 0.29219,-0.0668 0.0951,1.05217 -0.30465,2.25938 -0.60052,3.01359 -0.18424,0.46974 -0.39092,1.0168 -0.93601,1.03512 -0.31247,-0.60074 0.34738,-0.7473 0.58069,-1.16139 0.42101,-0.7473 0.36881,-1.97471 0.66365,-2.82052 z"
           style="fill:#000000;fill-rule:evenodd" />
        <path
           id="path7-9"
           d="m 478.88658,643.40378 c -0.34876,0.25993 -0.3937,-0.037 -0.91252,0 -0.45246,0.21119 -0.0283,1.29896 -0.66365,1.32731 -0.65259,-0.59107 0.103,-1.57445 0.41478,-1.99096 0.58519,-0.0906 1.1531,-0.0256 1.16139,0.66365 z"
           style="fill:#000000;fill-rule:evenodd" />
        <path
           id="path9-8"
           d="m 468.46196,642.76803 c 1.03523,0.0985 2.1134,0.72229 2.89907,1.07036 0.0104,0.14863 0.0246,0.23803 0.0433,0.39496 -0.49705,-0.074 -1.04603,-0.4096 -1.3941,-0.5807 -0.32111,-0.15796 -0.67956,-0.23643 -1.16139,-0.33183 -10e-4,-0.16487 -0.41581,0.58906 -0.35532,0.36266 z"
           style="fill:#000000;fill-rule:evenodd" />
        <path
           id="path11-1"
           d="m 479.7991,644.48222 c -0.0719,0.24126 -0.12409,0.0933 -0.33182,0.0829 0.0138,0.26408 0.19425,0.61077 0,0.82957 -0.41686,0.0574 -0.38575,-0.33321 -0.82957,-0.24887 10e-4,0.4967 0.51917,0.47596 0.49774,0.99548 -0.73658,0.22467 -0.95434,-0.37918 -1.57617,-0.24887 0.11614,-1.04526 1.0411,-1.28168 1.82504,-1.65913 0.24196,-0.0207 0.2862,0.15623 0.41478,0.24887 z"
           style="fill:#000000;fill-rule:evenodd" />
        <path
           id="path13-8"
           d="m 473.66032,645.06291 c -0.59072,0.28447 -1.17072,-0.0823 -1.82504,0.083 -0.39128,0.21707 -0.40441,0.81228 -0.74661,1.07843 -0.7072,-0.28931 0.20221,-1.10366 0.41478,-1.49321 0.73693,-0.41513 1.77562,-0.5489 2.15687,0.33182 z"
           style="fill:#000000;fill-rule:evenodd" />
        <path
           id="path15-2"
           d="m 473.3285,646.88795 c -0.029,0.27514 -0.24853,0.36017 -0.41479,0.49774 -0.25198,-0.0463 -0.56272,-0.30832 -0.82956,-0.0829 10e-4,0.35809 0.41305,0.30555 0.41478,0.66365 -0.13826,0.11061 -0.12893,0.36881 -0.24887,0.49774 -0.47147,-0.46905 -1.02417,0.0919 -1.49321,-0.24887 0.15105,-0.37434 0.41858,-0.6322 0.41478,-1.16139 0.42999,-0.15071 0.7155,-0.44589 1.07843,-0.66365 0.21949,0.3059 0.87796,0.17282 1.07844,0.49773 z"
           style="fill:#000000;fill-rule:evenodd" />
        <path
           id="path17-6"
           d="m 477.12137,649.21477 c -0.30659,-0.13895 -0.0726,-0.23839 -0.0598,-0.50177 0.0325,-0.67022 0.4563,-0.22928 0.0598,0.50177 z"
           style="fill:#000000;fill-rule:evenodd" />
        <path
           id="path19-6"
           d="m 475.9831,648.54708 c 0.0553,0 0.11061,-0.63135 0.16592,-0.63135 0.30071,-0.0795 0.0843,0.98945 0.24887,1.04614 0.31627,-0.17767 0.56756,-0.0173 0.74661,0.16591 -0.17802,0.26442 -0.70617,0.17905 -0.91253,0.41478 -0.58035,-0.26684 -0.79223,0.44036 -1.3273,0.16592 0.0567,-0.46456 0.3695,-0.74696 0.82957,-0.5807 0.16625,-0.11061 0.18492,-0.36812 0.24886,-0.5807 z"
           style="fill:#000000;fill-rule:evenodd" />
        <path
           id="path21-0"
           d="m 478.72067,650.31483 c -0.28689,0.19426 -1.30718,0.60388 -1.46756,0.2295 0.39404,-0.19045 1.4686,-1.26027 1.46756,-0.2295 z"
           style="fill:#000000;fill-rule:evenodd" />
        <path
           style="fill:#000000;fill-rule:evenodd"
           d="m 476.81615,651.26059 c -0.11672,-0.0796 -0.22924,-0.15733 -0.37169,-0.18578 -0.18607,-0.0953 -0.3759,0.0163 -0.43898,0.19785 -0.33316,0.39002 -0.99586,0.43933 -1.3674,0.0763 -0.0947,-0.0852 -0.26564,-0.25043 -0.12704,-0.36822 0.17993,-0.0977 0.38649,0.003 0.55935,0.0709 0.15547,0.046 0.30284,0.14229 0.46793,0.13958 0.17053,-0.0793 0.24226,-0.28637 0.38092,-0.4103 0.16778,-0.19224 0.43336,-0.31988 0.6903,-0.2647 0.133,0.0296 0.30634,0.0215 0.37123,-0.12132 0.0478,-0.0827 0.0683,-0.17788 0.0807,-0.27159 l 7e-5,-5e-5 c 0.22089,-0.019 0.1906,0.26181 0.21895,0.40809 0.0341,0.19974 0.0364,0.49361 -0.11563,0.638 m 0.34217,0.46267 c 0.29569,-0.0628 0.0474,-0.23419 0.33407,-0.0775 0.20623,0.11269 0.56047,-0.0937 0.52932,0.11474 0.0139,0.18611 -0.0547,0.41295 -0.27502,0.41032 -0.36954,0.12468 -0.67382,0.4251 -1.07626,0.452 -0.17992,0.0664 -0.41263,-0.0563 -0.41783,-0.25796 -0.0796,-0.14295 0.75301,-0.29901 0.30468,-0.33414 0.10088,-0.20066 0.54937,0.0232 0.36288,-0.0592"
           id="path23-3" />
        <path
           style="fill:#000000;fill-rule:evenodd"
           d="m 493.32101,649.04482 c 0.67655,0.005 3.9852,4.99882 0.2049,5.88705 -0.59657,4.4042 6.45988,3.45338 7.01233,7.80082 -0.26745,2.74065 3.72791,3.26533 3.56678,5.06034 0.19352,2.73328 1.7303,6.07446 -1.13865,7.98625 -1.95249,3.37941 -3.75052,4.56324 -7.65442,3.62761 1.62272,3.7346 2.13281,7.73939 3.64953,11.36504 1.02875,2.07736 2.45918,5.67229 -0.63217,6.23159 -0.0596,3.98449 0.0569,8.72892 1.79351,12.1844 1.46859,5.20112 2.36168,10.62928 3.65005,16.0103 4.6226,-1.8066 10.04906,7.53941 3.23526,6.63652 1.94042,2.91241 -4.72645,2.22067 -0.71663,4.14643 2.30231,0.0935 7.77648,6.92983 2.17853,6.02166 -4.36534,-2.16385 -9.4681,-1.44908 -13.1186,-5.05628 -3.15752,0.0403 -8.46614,-0.6302 -7.4419,-5.27986 -4.84949,-2.35631 2.63591,-5.15905 3.0048,-6.38561 -1.95287,-4.63098 -3.30761,-9.77303 -5.07868,-14.22662 -1.35233,-2.73431 -3.26153,-7.79607 -4.34186,-8.90297 -1.26181,4.7069 -4.55459,8.46814 -5.75993,13.28136 -0.9648,4.32099 -2.94026,9.86999 -3.85077,12.79751 4.84295,0.0477 3.10587,7.48356 -0.12536,6.573 0.10056,4.73928 -5.13388,3.16172 -5.97893,-0.14874 -0.42428,3.28982 -3.05528,6.19014 -7.01216,6.77473 -2.51724,0.75275 -7.65603,2.8886 -8.99131,0.29432 1.93755,-3.60147 6.90183,-3.92531 8.7033,-7.40118 -3.9185,2.61766 -4.51118,-2.73597 -4.88562,-3.57617 -5.36099,-2.54599 1.36664,-6.58801 4.80267,-5.88126 -0.33287,-4.13713 2.95776,-7.35746 2.65877,-11.25468 0.81668,-3.61875 1.52362,-7.33502 2.6223,-10.75722 1.04786,-2.59954 0.94125,-3.81143 -2.19002,-4.49387 -2.99444,-1.98649 -6.2457,-1.9037 -9.64467,-2.94383 1.78376,-3.7452 4.1012,-7.34035 6.58766,-10.45991 1.44485,-1.98122 5.07408,-5.24984 0.62956,-6.71203 -2.79648,-2.04006 -8.59496,-4.5912 -4.32566,-8.39054 1.14175,-2.99862 7.27393,-5.18089 2.76878,-7.42525 -0.30947,-4.10551 3.84728,-7.1012 6.78314,-9.32003 2.70956,-2.10721 5.93473,-4.93469 7.80975,-0.98644 3.63561,3.05699 9.46655,1.21497 9.27959,-3.908 -0.014,-1.68279 -0.0195,-5.10082 -0.44769,-5.8134 -1.27825,2.43554 -3.01473,-5.04565 -3.7827,-0.53238 -0.87517,3.59998 -1.71045,-1.17197 -2.07434,1.53431 -2.02154,0.97199 -0.0176,-2.93645 -2.18699,-3.15628 2.38395,-0.57855 1.04232,4.32518 2.7532,1.69815 1.70207,1.49588 1.53153,-4.70234 3.74758,-1.11352 0.37663,1.61384 1.34888,0.77646 2.07001,0.54814 -1.84791,-4.69036 -7.16467,-5.53493 -11.14114,-2.86056 -2.71316,0.44909 -4.12461,8.26078 -1.56924,7.14711 -1.15036,-5.57918 2.84095,5.09517 -0.44508,1.46585 -1.99438,-2.97954 0.30623,3.23398 1.35845,2.61253 -4.06401,-0.26573 -2.06284,-5.58918 -6.05413,-6.98553 -4.57961,-1.5622 1.19679,-5.96753 -2.73078,-7.02506 -3.11964,-0.50523 -2.27354,-5.14019 -0.34441,-5.15013 0.25589,-2.52918 7.33583,-2.14664 7.24241,1.45421 4.42175,-4.11744 8.41889,0.52015 10.03773,4.64556 3.60929,0.98736 4.22019,5.50413 5.22902,8.52202 -2.48081,3.50467 2.88996,1.60845 4.06246,1.84754 1.23932,0.40205 4.09009,0.18599 6.09445,1.68469 l 0.12729,0.30826 z m -26.79495,-17.75269 c -2.1536,-3.58094 -9.73996,0.6107 -5.51887,3.22798 1.77648,3.70862 6.37225,-0.99896 5.51887,-3.22798 z m 14.84922,13.19009 c 1.03216,4.4306 1.46176,-3.53317 0.0601,-0.84383 z m 3.816,5.88991 c 4.12734,-1.12118 5.56455,6.32672 9.24003,3.09839 0.39584,-4.4772 -5.09959,-5.20559 -8.46313,-5.72248 -5.36929,-1.8753 -3.6881,5.9448 -8.19114,6.40435 -4.75169,1.30092 -7.61183,-5.96081 -11.49985,-1.87222 -2.52931,2.44041 -6.0978,4.41954 -7.37699,7.55513 -3.22436,4.14812 5.0939,5.14319 4.76995,0.78804 0.96179,-2.0811 4.70295,-6.88131 5.78083,-6.12357 -2.62222,1.90475 -5.25958,5.35909 -5.76591,8.35021 -2.189,4.74903 3.75162,4.79087 6.42585,3.15845 3.48621,-0.9137 0.0888,-7.95304 3.06626,-8.26792 -0.92944,2.56649 -1.85863,7.28714 1.14653,9.05704 2.89895,1.58456 8.58593,-0.43668 7.30021,-4.23078 -0.58955,-2.01067 -2.62599,-3.93119 -2.37683,-5.3796 2.52274,2.96526 3.94538,9.55033 9.34518,5.87734 4.58202,-2.11369 -2.35715,-5.90853 -4.43698,-7.30767 -3.1623,-1.79305 4.16992,0.49393 4.18811,2.57915 3.29658,2.3803 7.30862,-2.05343 2.73756,-3.40122 -0.55527,-2.97915 -6.70912,-3.55263 -5.88968,-4.56264 z m 10.03773,10.20365 c -3.35871,0.65115 -5.05792,4.64682 -2.04549,6.08549 2.22979,-2.02675 6.73989,-0.49634 4.36827,-4.34341 -1.30026,0.35091 -1.53459,-1.13929 -2.32278,-1.74208 z m -25.30173,6.63652 c -2.71428,0.46881 -4.81296,5.64364 -1.36471,2.86511 2.76969,1.89115 4.0747,1.38146 4.85587,-1.7796 1.33747,-1.32218 -2.1983,-3.91759 -2.94721,-1.40374 l -0.5439,0.31823 z m -10.8673,-1.65913 c -0.6937,1.56012 -4.17603,3.45413 -0.89744,2.79595 2.2404,2.47367 5.27756,-3.0841 0.89744,-2.79595 z m 9.45704,1.41026 c 0.7311,-0.0109 0.38765,-0.59884 0,0 z m 15.34695,2.48869 c -1.35938,-5.76898 -5.1256,2.64819 -0.71832,1.76167 0.50669,-0.4273 0.75328,-1.10922 0.71832,-1.76167 z m 15.18104,-1.16139 c -2.96556,-3.26567 -7.50971,5.00692 -3.56743,3.65009 2.68315,3.78216 2.48738,-0.20693 5.39182,-1.74209 -0.0716,-1.00685 -0.25329,-2.35988 -1.82439,-1.908 z m -10.45252,-0.66365 c -2.55014,-0.01 -5.61176,-0.3389 -4.14748,2.90348 -1.45184,1.61033 -2.29132,8.39387 1.85695,5.67067 2.56089,-0.63489 5.54764,0.57368 4.28555,-3.18917 -0.39297,-2.66716 2.1575,-5.60336 -1.99502,-5.38498 z m 14.60035,0.66365 c -3.57792,1.1288 -0.27959,3.66025 0.33182,5.55804 0.13631,-1.49447 -0.002,-5.08469 -0.33182,-5.55804 z m -41.47825,3.56713 c -2.26855,-4.10763 -6.27816,1.6984 -6.05262,3.19693 2.41728,1.04454 4.28584,3.99314 5.14295,0.0946 1.13538,-2.15621 3.32513,-1.4697 0.90967,-3.29156 z m 2.90347,1.65913 c 1.25643,2.79828 5.26344,4.06546 5.77371,1.05484 -2.5291,-0.62316 -3.46651,-5.00007 -5.77371,-1.05484 z m -11.19912,-0.49774 c 0.36339,-0.56245 -0.35851,-0.26178 0,0 z m 42.55668,0.16591 c -3.26564,-0.49018 -0.5284,5.69407 0.33217,5.88996 3.91329,-2.17944 1.54543,-3.7568 -0.33217,-5.88996 z m -25.30173,3.23531 c -1.63117,-0.93069 -6.06471,4.81686 -5.30998,5.22553 2.68269,-0.2811 2.76663,-5.45464 3.72426,-2.04117 0.89171,0.64568 2.88459,1.9408 2.49228,0.43483 1.90245,-0.72689 -2.08386,-0.22128 1.00481,-1.04409 1.36646,-0.85302 -0.0761,-1.63052 1.82159,-1.74554 1.76898,1.93622 -3.9832,2.37744 -1.908,4.06487 1.23307,-3.33944 0.77879,1.72763 1.8493,-1.49305 2.11065,1.04933 0.57846,-4.84339 -2.37841,-3.40112 -0.88358,-0.0212 -0.84439,-0.98977 -1.29585,-2.6e-4 z m 27.12677,2.32278 c 2.73522,1.43853 0.54408,-4.16491 0,-4e-5 z m -15.76173,1.99096 c 5.14568,0.98227 -1.11978,-7.36495 -0.71018,-1.48207 l 0.3318,0.91294 z m 9.62295,-3.40122 c 0.0885,2.98406 -2.08897,11.7099 2.98778,7.84095 3.82907,0.6946 -0.51625,-4.90142 -0.49907,-7.26026 -0.86958,-0.0571 -1.57289,-0.93344 -2.48871,-0.58069 z m -15.84469,0.74661 c 1.68534,4.05107 -5.03972,2.36972 -3.65008,6.80243 -0.94768,2.19959 -1.93549,4.97414 1.02619,2.60201 2.54705,-0.4965 3.78279,-1.42004 7.06595,-0.12517 0.55353,1.10624 1.96819,-5.50652 0.99843,-6.54121 -0.2504,-4.56946 -1.92987,-2.49577 -5.44049,-2.73806 z m -15.51286,0 c 1.0837,1.73414 5.73964,5.37945 2.57165,2.07391 -0.45592,-0.26797 -2.41977,-3.19252 -2.57165,-2.07391 z m 4.31373,10.45252 c -0.46834,-2.68346 -7.24251,-3.17774 -8.16201,0.46494 -4.49858,3.96059 4.55196,1.827 5.44947,5.60777 1.50326,1.66266 1.94342,-5.35386 2.71254,-6.07271 z m 23.39374,-0.91252 c -1.85351,-0.28044 -7.02341,-0.73889 -3.816,1.82538 0.17642,3.97619 -4.72593,2.82435 -3.27668,7.12144 2.05134,1.17746 8.50356,1.42302 9.91235,-0.41039 -1.00748,-2.38136 1.68716,-10.23985 -2.81967,-8.53643 z m -6.88539,4.31373 c 4.76896,1.3736 0.18483,-7.52371 -0.82957,-1.90796 0.68482,0.39742 -0.29823,2.23273 0.82957,1.90796 z m -16.01061,-3.31826 c -0.23307,3.69011 -5.57882,11.33914 1.35151,9.93632 4.52453,0.69304 3.64887,-5.03433 4.82397,-8.02274 0.87134,-2.62973 -5.56508,-2.08547 -6.17548,-1.91358 z m 32.18712,8.46157 c -1.14658,3.70509 -9.69786,-2.13243 -5.36222,2.72858 0.72118,1.50144 1.70731,5.83823 3.47346,6.87246 2.03928,0.12849 4.14915,1.3272 2.61902,-1.66308 -0.40831,-2.25498 -0.31117,-6.69073 -0.73026,-7.93796 z m -16.50834,0.99547 c -2.85022,-0.28046 -9.37963,0.26195 -9.80781,1.71402 2.91764,1.34322 5.56845,1.28893 7.87454,1.44395 1.06937,6.3764 4.65672,-3.73249 1.93327,-3.15797 z m -17.30708,0.983 c 0.92083,0.15688 -0.96107,-0.25173 0,0 z m 15.39908,8.22518 c 3.07746,-2.77545 -2.84515,-8.54059 -3.11578,-2.96614 0.29282,3.59916 -4.94894,7.75843 -0.19937,9.1842 1.133,-0.5137 2.04112,-4.6768 3.31515,-6.21806 z m 11.19913,1.57617 c -4.93925,0.30009 -2.33986,5.19127 -1.3233,8.38507 0.54914,2.46838 1.11181,5.13689 3.70584,2.61233 2.23749,-1.16769 5.4345,-0.45928 3.76298,-4.08466 -1.11561,-3.82089 -0.0329,-10.59756 -6.14552,-6.91274 z m -22.06643,12.44347 c -0.32907,-3.03116 6.71113,-8.89595 0.7813,-9.67789 -2.31473,-0.35529 -7.07582,-1.24986 -6.84256,1.97686 1.3855,3.16753 -2.20252,3.63047 -1.31847,6.41241 2.80253,-1.02866 5.71721,2.90198 7.37973,1.28862 z m 29.53251,-1.3273 c 1.38741,2.90273 0.30965,9.67558 4.7452,8.489 1.51135,-0.71266 0.33974,-5.92743 -0.86865,-7.62483 -0.93401,0.66019 -3.09053,-1.66206 -3.87655,-0.86417 z m -29.03477,3.73304 c -1.31736,2.30906 -4.67,9.20909 0.82956,7.38353 1.37031,-2.98339 3.11211,-6.81534 -1.0722,-7.7352 l 0.0534,0.1178 0.18924,0.23392 z m -13.27304,2.65461 c -3.5698,0.24731 -3.33458,5.30951 0.24835,2.87473 3.82883,-0.57231 -3.34436,2.47133 0.24939,4.92248 2.67785,0.59158 5.87678,-5.1685 4.28429,0.22671 0.63013,4.56452 5.20153,1.20349 5.58753,-1.63697 0.30421,3.16544 6.43749,6.70161 5.18618,1.25918 -1.24119,-4.79085 -7.50153,0.6447 -9.7315,-3.84781 -3.83159,-0.74503 -1.66077,-6.4234 -5.82424,-3.79832 z m 37.49634,4.31374 c -0.063,-3.55259 -3.04293,-5.26263 -4.81048,-1.64752 -2.06936,3.37847 4.27404,0.85772 1.21413,3.94163 -0.70764,4.25819 6.55315,3.70052 5.66991,-0.46907 0.74689,2.90193 6.52347,4.63116 5.64139,-0.16557 -1.99421,-3.54107 2.47813,2.54616 4.30756,1.59116 3.68467,-0.13959 0.719,-3.35742 -1.01848,-3.60932 1.62116,0.21516 7.77784,2.17711 4.95201,-1.97811 -2.1296,-2.94578 -6.05529,-3.17747 -4.92322,1.17541 -3.28229,-0.87738 -9.00253,2.51974 -10.37026,1.4929 l -0.42268,-0.0737 -0.23993,-0.25775 5e-5,-3e-5 z m -22.56417,0.58069 c 0.91229,4.21998 6.49262,2.098 3.33248,-1.33456 -2.34274,-1.94933 -2.51779,-0.97673 -3.33248,1.33456 z m 24.55512,4.31374 c 3.06931,3.69011 7.66926,3.1368 11.77948,4.56262 2.76403,1.60436 4.1456,0.46847 1.8384,-2.09694 -1.68096,-2.36964 -3.78154,2.15491 -6.56692,0.35455 -2.73878,0.39974 -5.09462,-2.34605 -7.05096,-2.82023 z m -36.9986,4.89444 c -3.07855,1.13874 -5.38081,-3.14393 -7.13425,1.32765 3.429,0.0374 7.08082,-0.18289 10.03773,-1.82469 -0.93848,0.31552 -1.93822,0.31679 -2.90348,0.49704 z"
           id="path29-1" />
      </g>
    </g>
  </g>
</svg>
