<?xml version="1.0" encoding="UTF-8" standalone="no"?>
<!-- Created with Inkscape (http://www.inkscape.org/) -->

<svg
   width="41"
   height="61"
   id="svg2"
   version="1.1"
   xmlns:xlink="http://www.w3.org/1999/xlink"
   xmlns="http://www.w3.org/2000/svg"
   xmlns:svg="http://www.w3.org/2000/svg"
   xmlns:rdf="http://www.w3.org/1999/02/22-rdf-syntax-ns#"
   xmlns:cc="http://creativecommons.org/ns#"
   xmlns:dc="http://purl.org/dc/elements/1.1/">
  <title
     id="title7376">Mini Playing Card Set</title>
  <defs
     id="defs4">
    <pattern
       xlink:href="#pattern6338"
       id="pattern7260"
       patternTransform="translate(899.06674,771.65448)" />
    <pattern
       xlink:href="#pattern6396"
       id="pattern7257"
       patternTransform="translate(911.72951,771.64864)" />
    <pattern
       xlink:href="#pattern6396-2"
       id="pattern7254"
       patternTransform="translate(924.38922,771.68248)" />
    <pattern
       xlink:href="#pattern6324"
       id="pattern6338"
       patternTransform="translate(899.06674,771.65448)" />
    <pattern
       patternUnits="userSpaceOnUse"
       width="12.65012"
       height="12.87729"
       patternTransform="translate(898.79888,746.19277)"
       id="pattern6324">
      <path
         id="path6304"
         d="m 8.90239,8.49753 c -0.11507,1.83362 -0.38777,3.19421 -0.71886,4.37976 l 1.89658,0 C 9.76126,11.69412 9.51063,10.33667 9.40922,8.49753 l -0.50683,0 z"
         style="fill:#000000;fill-opacity:1;fill-rule:evenodd;stroke:none" />
      <path
         id="path6306"
         d="m 7.40309,8.15173 c -0.61145,0 -1.10756,0.49611 -1.10756,1.10756 0,0.61145 0.49611,1.10756 1.10756,1.10756 0.61145,0 1.10807,-0.49611 1.10806,-1.10756 0,-0.61145 -0.49661,-1.10756 -1.10806,-1.10756 z"
         style="fill:#000000;fill-opacity:1;fill-rule:evenodd;stroke:none" />
      <path
         id="path6308"
         d="m 10.91104,8.10528 c -0.61146,0 -1.10756,0.49611 -1.10756,1.10757 0,0.61145 0.4961,1.10806 1.10756,1.10806 0.61145,0 1.10756,-0.49661 1.10756,-1.10806 0,-0.61146 -0.49611,-1.10757 -1.10756,-1.10757 z"
         style="fill:#000000;fill-opacity:1;fill-rule:evenodd;stroke:none" />
      <path
         id="path6310"
         d="m 9.15732,5.83665 c -0.61146,0 -1.10807,0.49662 -1.10807,1.10807 0,0.61145 0.49661,1.10756 1.10807,1.10756 0.61145,0 1.10756,-0.49611 1.10756,-1.10756 0,-0.61145 -0.49611,-1.10807 -1.10756,-1.10807 z"
         style="fill:#000000;fill-opacity:1;fill-rule:evenodd;stroke:none" />
      <path
         id="path6312"
         d="M 2.60686,2.66642 C 2.33511,6.99675 1.18384,8.6885 0.46191,11.66826 l 1.5846,-1.10807 0.86122,1.10706 0.86121,-1.10807 1.49223,1.10756 C 4.4186,8.6615 3.35273,7.00154 3.11369,2.66642 l -0.50683,0 z"
         style="fill:#000000;fill-opacity:1;fill-rule:evenodd;stroke:none" />
      <path
         id="path6314"
         d="M 1.10807,2.32012 C 0.49661,2.32012 0,2.81673 0,3.42819 c 0,0.61145 0.49661,1.10756 1.10807,1.10756 0.61145,0 1.10756,-0.49611 1.10756,-1.10756 0,-0.61145 -0.49611,-1.10807 -1.10756,-1.10807 z"
         style="fill:#000000;fill-opacity:1;fill-rule:evenodd;stroke:none" />
      <path
         id="path6316"
         d="m 4.61551,2.27419 c -0.61145,0 -1.10756,0.4961 -1.10756,1.10756 0,0.61145 0.49611,1.10756 1.10756,1.10756 0.61145,0 1.10756,-0.49611 1.10756,-1.10756 0,-0.61146 -0.49611,-1.10757 -1.10756,-1.10756 z"
         style="fill:#000000;fill-opacity:1;fill-rule:evenodd;stroke:none" />
      <path
         id="path6318"
         d="m 12.65012,1.90517 c -0.0381,0.11193 -0.0591,0.23163 -0.0591,0.35639 0,0.12469 0.021,0.24453 0.0591,0.3564 l 0,-0.71279 z"
         style="opacity:0;fill:#000000;fill-opacity:1;fill-rule:evenodd;stroke:none" />
      <path
         id="path6320"
         d="m 2.86179,0.00555 c -0.61145,0 -1.10756,0.49611 -1.10756,1.10756 0,0.61146 0.49611,1.10807 1.10756,1.10807 0.61145,0 1.10756,-0.49661 1.10756,-1.10807 0,-0.61145 -0.49611,-1.10756 -1.10756,-1.10756 z"
         style="fill:#000000;fill-opacity:1;fill-rule:evenodd;stroke:none" />
      <path
         id="path6322"
         d="M 8.19666,0 C 7.74355,1.63691 7.17781,2.93544 6.75743,4.67053 L 8.34204,3.56247 9.20325,4.67003 10.06447,3.56196 11.55669,4.66902 C 11.06671,2.92136 10.50148,1.62844 10.06699,0 L 8.19666,0 z"
         style="fill:#000000;fill-opacity:1;fill-rule:evenodd;stroke:none" />
    </pattern>
    <pattern
       patternTransform="translate(911.72951,771.64864)"
       id="pattern6396"
       xlink:href="#pattern6338-4" />
    <pattern
       xlink:href="#pattern6324-9"
       id="pattern6338-4"
       patternTransform="translate(898.79888,771.69912)" />
    <pattern
       patternUnits="userSpaceOnUse"
       width="12.65012"
       height="12.87729"
       patternTransform="translate(898.79888,746.19277)"
       id="pattern6324-9">
      <path
         id="path6304-2"
         d="m 8.90239,8.49753 c -0.11507,1.83362 -0.38777,3.19421 -0.71886,4.37976 l 1.89658,0 C 9.76126,11.69412 9.51063,10.33667 9.40922,8.49753 l -0.50683,0 z"
         style="fill:#000000;fill-opacity:1;fill-rule:evenodd;stroke:none" />
      <path
         id="path6306-9"
         d="m 7.40309,8.15173 c -0.61145,0 -1.10756,0.49611 -1.10756,1.10756 0,0.61145 0.49611,1.10756 1.10756,1.10756 0.61145,0 1.10807,-0.49611 1.10806,-1.10756 0,-0.61145 -0.49661,-1.10756 -1.10806,-1.10756 z"
         style="fill:#000000;fill-opacity:1;fill-rule:evenodd;stroke:none" />
      <path
         id="path6308-3"
         d="m 10.91104,8.10528 c -0.61146,0 -1.10756,0.49611 -1.10756,1.10757 0,0.61145 0.4961,1.10806 1.10756,1.10806 0.61145,0 1.10756,-0.49661 1.10756,-1.10806 0,-0.61146 -0.49611,-1.10757 -1.10756,-1.10757 z"
         style="fill:#000000;fill-opacity:1;fill-rule:evenodd;stroke:none" />
      <path
         id="path6310-4"
         d="m 9.15732,5.83665 c -0.61146,0 -1.10807,0.49662 -1.10807,1.10807 0,0.61145 0.49661,1.10756 1.10807,1.10756 0.61145,0 1.10756,-0.49611 1.10756,-1.10756 0,-0.61145 -0.49611,-1.10807 -1.10756,-1.10807 z"
         style="fill:#000000;fill-opacity:1;fill-rule:evenodd;stroke:none" />
      <path
         id="path6312-4"
         d="M 2.60686,2.66642 C 2.33511,6.99675 1.18384,8.6885 0.46191,11.66826 l 1.5846,-1.10807 0.86122,1.10706 0.86121,-1.10807 1.49223,1.10756 C 4.4186,8.6615 3.35273,7.00154 3.11369,2.66642 l -0.50683,0 z"
         style="fill:#000000;fill-opacity:1;fill-rule:evenodd;stroke:none" />
      <path
         id="path6314-0"
         d="M 1.10807,2.32012 C 0.49661,2.32012 0,2.81673 0,3.42819 c 0,0.61145 0.49661,1.10756 1.10807,1.10756 0.61145,0 1.10756,-0.49611 1.10756,-1.10756 0,-0.61145 -0.49611,-1.10807 -1.10756,-1.10807 z"
         style="fill:#000000;fill-opacity:1;fill-rule:evenodd;stroke:none" />
      <path
         id="path6316-5"
         d="m 4.61551,2.27419 c -0.61145,0 -1.10756,0.4961 -1.10756,1.10756 0,0.61145 0.49611,1.10756 1.10756,1.10756 0.61145,0 1.10756,-0.49611 1.10756,-1.10756 0,-0.61146 -0.49611,-1.10757 -1.10756,-1.10756 z"
         style="fill:#000000;fill-opacity:1;fill-rule:evenodd;stroke:none" />
      <path
         id="path6318-9"
         d="m 12.65012,1.90517 c -0.0381,0.11193 -0.0591,0.23163 -0.0591,0.35639 0,0.12469 0.021,0.24453 0.0591,0.3564 l 0,-0.71279 z"
         style="opacity:0;fill:#000000;fill-opacity:1;fill-rule:evenodd;stroke:none" />
      <path
         id="path6320-6"
         d="m 2.86179,0.00555 c -0.61145,0 -1.10756,0.49611 -1.10756,1.10756 0,0.61146 0.49611,1.10807 1.10756,1.10807 0.61145,0 1.10756,-0.49661 1.10756,-1.10807 0,-0.61145 -0.49611,-1.10756 -1.10756,-1.10756 z"
         style="fill:#000000;fill-opacity:1;fill-rule:evenodd;stroke:none" />
      <path
         id="path6322-3"
         d="M 8.19666,0 C 7.74355,1.63691 7.17781,2.93544 6.75743,4.67053 L 8.34204,3.56247 9.20325,4.67003 10.06447,3.56196 11.55669,4.66902 C 11.06671,2.92136 10.50148,1.62844 10.06699,0 L 8.19666,0 z"
         style="fill:#000000;fill-opacity:1;fill-rule:evenodd;stroke:none" />
    </pattern>
    <pattern
       patternTransform="translate(924.38922,771.68248)"
       id="pattern6396-2"
       xlink:href="#pattern6338-8" />
    <pattern
       xlink:href="#pattern6324-8"
       id="pattern6338-8"
       patternTransform="translate(898.79888,771.69912)" />
    <pattern
       patternUnits="userSpaceOnUse"
       width="12.65012"
       height="12.87729"
       patternTransform="translate(898.79888,746.19277)"
       id="pattern6324-8">
      <path
         id="path6304-7"
         d="m 8.90239,8.49753 c -0.11507,1.83362 -0.38777,3.19421 -0.71886,4.37976 l 1.89658,0 C 9.76126,11.69412 9.51063,10.33667 9.40922,8.49753 l -0.50683,0 z"
         style="fill:#000000;fill-opacity:1;fill-rule:evenodd;stroke:none" />
      <path
         id="path6306-5"
         d="m 7.40309,8.15173 c -0.61145,0 -1.10756,0.49611 -1.10756,1.10756 0,0.61145 0.49611,1.10756 1.10756,1.10756 0.61145,0 1.10807,-0.49611 1.10806,-1.10756 0,-0.61145 -0.49661,-1.10756 -1.10806,-1.10756 z"
         style="fill:#000000;fill-opacity:1;fill-rule:evenodd;stroke:none" />
      <path
         id="path6308-8"
         d="m 10.91104,8.10528 c -0.61146,0 -1.10756,0.49611 -1.10756,1.10757 0,0.61145 0.4961,1.10806 1.10756,1.10806 0.61145,0 1.10756,-0.49661 1.10756,-1.10806 0,-0.61146 -0.49611,-1.10757 -1.10756,-1.10757 z"
         style="fill:#000000;fill-opacity:1;fill-rule:evenodd;stroke:none" />
      <path
         id="path6310-1"
         d="m 9.15732,5.83665 c -0.61146,0 -1.10807,0.49662 -1.10807,1.10807 0,0.61145 0.49661,1.10756 1.10807,1.10756 0.61145,0 1.10756,-0.49611 1.10756,-1.10756 0,-0.61145 -0.49611,-1.10807 -1.10756,-1.10807 z"
         style="fill:#000000;fill-opacity:1;fill-rule:evenodd;stroke:none" />
      <path
         id="path6312-2"
         d="M 2.60686,2.66642 C 2.33511,6.99675 1.18384,8.6885 0.46191,11.66826 l 1.5846,-1.10807 0.86122,1.10706 0.86121,-1.10807 1.49223,1.10756 C 4.4186,8.6615 3.35273,7.00154 3.11369,2.66642 l -0.50683,0 z"
         style="fill:#000000;fill-opacity:1;fill-rule:evenodd;stroke:none" />
      <path
         id="path6314-5"
         d="M 1.10807,2.32012 C 0.49661,2.32012 0,2.81673 0,3.42819 c 0,0.61145 0.49661,1.10756 1.10807,1.10756 0.61145,0 1.10756,-0.49611 1.10756,-1.10756 0,-0.61145 -0.49611,-1.10807 -1.10756,-1.10807 z"
         style="fill:#000000;fill-opacity:1;fill-rule:evenodd;stroke:none" />
      <path
         id="path6316-7"
         d="m 4.61551,2.27419 c -0.61145,0 -1.10756,0.4961 -1.10756,1.10756 0,0.61145 0.49611,1.10756 1.10756,1.10756 0.61145,0 1.10756,-0.49611 1.10756,-1.10756 0,-0.61146 -0.49611,-1.10757 -1.10756,-1.10756 z"
         style="fill:#000000;fill-opacity:1;fill-rule:evenodd;stroke:none" />
      <path
         id="path6318-4"
         d="m 12.65012,1.90517 c -0.0381,0.11193 -0.0591,0.23163 -0.0591,0.35639 0,0.12469 0.021,0.24453 0.0591,0.3564 l 0,-0.71279 z"
         style="opacity:0;fill:#000000;fill-opacity:1;fill-rule:evenodd;stroke:none" />
      <path
         id="path6320-4"
         d="m 2.86179,0.00555 c -0.61145,0 -1.10756,0.49611 -1.10756,1.10756 0,0.61146 0.49611,1.10807 1.10756,1.10807 0.61145,0 1.10756,-0.49661 1.10756,-1.10807 0,-0.61145 -0.49611,-1.10756 -1.10756,-1.10756 z"
         style="fill:#000000;fill-opacity:1;fill-rule:evenodd;stroke:none" />
      <path
         id="path6322-4"
         d="M 8.19666,0 C 7.74355,1.63691 7.17781,2.93544 6.75743,4.67053 L 8.34204,3.56247 9.20325,4.67003 10.06447,3.56196 11.55669,4.66902 C 11.06671,2.92136 10.50148,1.62844 10.06699,0 L 8.19666,0 z"
         style="fill:#000000;fill-opacity:1;fill-rule:evenodd;stroke:none" />
    </pattern>
  </defs>
  <metadata
     id="metadata7">
    <rdf:RDF>
      <cc:Work
         rdf:about="">
        <dc:format>image/svg+xml</dc:format>
        <dc:type
           rdf:resource="http://purl.org/dc/dcmitype/StillImage" />
        <dc:title>Mini Playing Card Set</dc:title>
        <dc:date>2012-01-23</dc:date>
        <dc:creator>
          <cc:Agent>
            <dc:title>Daniel Scott Fowler</dc:title>
          </cc:Agent>
        </dc:creator>
        <dc:rights>
          <cc:Agent>
            <dc:title>Daniel Scot Fowler</dc:title>
          </cc:Agent>
        </dc:rights>
        <dc:publisher>
          <cc:Agent>
            <dc:title>Eye Internet Limited</dc:title>
          </cc:Agent>
        </dc:publisher>
        <dc:identifier>http://tekeye.biz/download/simple_cards.svg</dc:identifier>
        <dc:source>http://tekeye.biz/</dc:source>
        <dc:subject>
          <rdf:Bag>
            <rdf:li>playing</rdf:li>
            <rdf:li>cards</rdf:li>
            <rdf:li>suits</rdf:li>
            <rdf:li>diamond</rdf:li>
            <rdf:li>heart</rdf:li>
            <rdf:li>club</rdf:li>
            <rdf:li>spade</rdf:li>
            <rdf:li>joker</rdf:li>
          </rdf:Bag>
        </dc:subject>
        <dc:description>A set of mini or micro playing cards suitable for the basis of cards for mobile device card games.</dc:description>
      </cc:Work>
    </rdf:RDF>
  </metadata>
  <g
     id="layer1"
     transform="translate(-759.5,-771.79916)">
    <g
       id="g7264"
       transform="translate(-137.57617,9.43197)">
      <rect
         rx="10"
         ry="12"
         y="762.86719"
         x="897.57617"
         height="60"
         width="40"
         id="rect3050-09-54-6"
         style="fill:#ffffff;fill-opacity:1;stroke:#000000;stroke-width:1;stroke-linejoin:round;stroke-miterlimit:4;stroke-dasharray:none;stroke-opacity:1" />
      <rect
         id="rect3068-3"
         y="784.48291"
         x="899.06677"
         height="38.290115"
         width="38.165417"
         style="fill:none;stroke:none" />
      <rect
         id="rect6336"
         y="771.65448"
         x="899.06677"
         height="12.87729"
         width="12.65012"
         style="fill:url(#pattern7260);stroke:none" />
      <rect
         id="rect6336-4"
         y="771.64856"
         x="911.72949"
         height="12.87729"
         width="12.65012"
         style="fill:url(#pattern7257);stroke:none" />
      <rect
         id="rect6336-44"
         y="771.68243"
         x="924.38922"
         height="12.87729"
         width="12.65012"
         style="fill:url(#pattern7254);stroke:none" />
      <path
         id="path6564"
         d="m 907.97912,767.32287 c -0.11507,1.83362 -0.38777,3.19421 -0.71886,4.37976 h 1.89658 c -0.31885,-1.18317 -0.56948,-2.54062 -0.67089,-4.37976 z"
         style="fill:#000000;fill-opacity:1;fill-rule:evenodd;stroke:none" />
      <path
         id="path6566"
         d="m 906.47982,766.97707 c -0.61145,0 -1.10756,0.49611 -1.10756,1.10756 0,0.61145 0.49611,1.10756 1.10756,1.10756 0.61145,0 1.10807,-0.49611 1.10806,-1.10756 0,-0.61145 -0.49661,-1.10756 -1.10806,-1.10756 z"
         style="fill:#000000;fill-opacity:1;fill-rule:evenodd;stroke:none" />
      <path
         id="path6568"
         d="m 909.98777,766.93062 c -0.61146,0 -1.10756,0.49611 -1.10756,1.10757 0,0.61145 0.4961,1.10806 1.10756,1.10806 0.61145,0 1.10756,-0.49661 1.10756,-1.10806 0,-0.61146 -0.49611,-1.10757 -1.10756,-1.10757 z"
         style="fill:#000000;fill-opacity:1;fill-rule:evenodd;stroke:none" />
      <path
         id="path6570"
         d="m 908.23405,764.66199 c -0.61146,0 -1.10807,0.49662 -1.10807,1.10807 0,0.61145 0.49661,1.10756 1.10807,1.10756 0.61145,0 1.10756,-0.49611 1.10756,-1.10756 0,-0.61145 -0.49611,-1.10807 -1.10756,-1.10807 z"
         style="fill:#000000;fill-opacity:1;fill-rule:evenodd;stroke:none" />
      <path
         id="path6572"
         d="m 902.58036,764.6434 c -0.63694,0.47186 -1.21919,1.03021 -1.75,1.65625 -0.01,0.0113 -0.0217,0.0199 -0.0312,0.0312 -0.4175,1.39898 -0.87575,2.61155 -1.25,4.15625 l 1.5625,-1.09375 0.875,1.09375 0.84375,-1.09375 1.5,1.09375 c -0.60084,-2.14304 -1.30942,-3.61109 -1.75,-5.84375 z"
         style="fill:#000000;fill-opacity:1;fill-rule:evenodd;stroke:none" />
      <path
         id="path6584"
         d="m 920.62501,767.36751 c -0.11698,1.83362 -0.39422,3.19421 -0.73082,4.37976 h 1.92815 c -0.32416,-1.18317 -0.57896,-2.54062 -0.68206,-4.37976 z"
         style="fill:#000000;fill-opacity:1;fill-rule:evenodd;stroke:none" />
      <path
         id="path6586"
         d="m 919.11375,767.02171 c -0.61145,0 -1.10756,0.49611 -1.10756,1.10756 0,0.61145 0.49611,1.10756 1.10756,1.10756 0.61145,0 1.10807,-0.49611 1.10806,-1.10756 0,-0.61145 -0.49661,-1.10756 -1.10806,-1.10756 z"
         style="fill:#000000;fill-opacity:1;fill-rule:evenodd;stroke:none" />
      <path
         id="path6588"
         d="m 922.6217,766.97526 c -0.61146,0 -1.10756,0.49611 -1.10756,1.10757 0,0.61145 0.4961,1.10806 1.10756,1.10806 0.61145,0 1.10756,-0.49661 1.10756,-1.10806 0,-0.61146 -0.49611,-1.10757 -1.10756,-1.10757 z"
         style="fill:#000000;fill-opacity:1;fill-rule:evenodd;stroke:none" />
      <path
         id="path6590"
         d="m 920.86798,764.70663 c -0.61146,0 -1.10807,0.49662 -1.10807,1.10807 0,0.61145 0.49661,1.10756 1.10807,1.10756 0.61145,0 1.10756,-0.49611 1.10756,-1.10756 0,-0.61145 -0.49611,-1.10807 -1.10756,-1.10807 z"
         style="fill:#000000;fill-opacity:1;fill-rule:evenodd;stroke:none" />
      <path
         id="path6592"
         d="m 914.22282,762.48342 c -0.27175,4.33033 -1.32832,5.07506 -2.05025,8.05482 l 1.5846,-1.10807 0.86122,1.10706 0.86121,-1.10807 1.49223,1.10756 c -0.84257,-3.00524 -2.00314,-3.71818 -2.24218,-8.0533 z"
         style="fill:#000000;fill-opacity:1;fill-rule:evenodd;stroke:none" />
      <path
         id="path6604"
         d="m 933.29161,767.27823 c -0.11507,1.88648 -0.38777,3.2863 -0.71886,4.50603 h 1.89658 c -0.31885,-1.21728 -0.56948,-2.61387 -0.67089,-4.50603 z"
         style="fill:#000000;fill-opacity:1;fill-rule:evenodd;stroke:none" />
      <path
         id="path6606"
         d="m 931.79231,766.93243 c -0.61145,0 -1.10756,0.49611 -1.10756,1.10756 0,0.61145 0.49611,1.10756 1.10756,1.10756 0.61145,0 1.10807,-0.49611 1.10806,-1.10756 0,-0.61145 -0.49661,-1.10756 -1.10806,-1.10756 z"
         style="fill:#000000;fill-opacity:1;fill-rule:evenodd;stroke:none" />
      <path
         id="path6608"
         d="m 935.21097,767.15384 c -0.61146,0 -1.01827,0.22825 -1.01827,0.83971 0,0.61145 0.4961,1.10806 1.10756,1.10806 0.61145,0 0.88435,-0.31804 0.88435,-0.92949 0,-0.61146 -0.36219,-1.01828 -0.97364,-1.01828 z"
         style="fill:#000000;fill-opacity:1;fill-rule:evenodd;stroke:none" />
      <path
         id="path6610"
         d="m 933.23087,764.74362 c -0.61146,0 -0.7924,0.37035 -0.7924,0.9818 0,0.61145 0.49661,1.10756 1.10807,1.10756 0.61145,0 0.85502,-0.24357 0.85502,-0.85502 0,-0.61145 -0.55924,-1.23434 -1.17069,-1.23434 z"
         style="fill:#000000;fill-opacity:1;fill-rule:evenodd;stroke:none" />
      <path
         id="path6612"
         d="m 926.96451,762.48884 c -0.27175,4.33033 -1.39145,4.98036 -2.11338,7.96012 l 1.5846,-1.10807 0.86122,1.10706 0.86121,-1.10807 1.49223,1.10756 c -0.84257,-3.00524 -1.94001,-3.62348 -2.17905,-7.9586 z"
         style="fill:#000000;fill-opacity:1;fill-rule:evenodd;stroke:none" />
      <path
         id="path6764"
         d="m 907.98605,792.98043 c -0.11778,1.83362 -0.39689,3.19421 -0.73578,4.37976 h 1.94123 c -0.32636,-1.18317 -0.58289,-2.54062 -0.68669,-4.37976 z"
         style="fill:#000000;fill-opacity:1;fill-rule:evenodd;stroke:none" />
      <path
         id="path6766"
         d="m 906.46983,792.63463 c -0.61145,0 -1.10756,0.49611 -1.10756,1.10756 0,0.61145 0.49611,1.10756 1.10756,1.10756 0.61145,0 1.10807,-0.49611 1.10806,-1.10756 0,-0.61145 -0.49661,-1.10756 -1.10806,-1.10756 z"
         style="fill:#000000;fill-opacity:1;fill-rule:evenodd;stroke:none" />
      <path
         id="path6768"
         d="m 909.97778,792.58818 c -0.61146,0 -1.10756,0.49611 -1.10756,1.10757 0,0.61145 0.4961,1.10806 1.10756,1.10806 0.61145,0 1.10756,-0.49661 1.10756,-1.10806 0,-0.61146 -0.49611,-1.10757 -1.10756,-1.10757 z"
         style="fill:#000000;fill-opacity:1;fill-rule:evenodd;stroke:none" />
      <path
         id="path6770"
         d="m 908.22406,790.31955 c -0.61146,0 -1.10807,0.49662 -1.10807,1.10807 0,0.61145 0.49661,1.10756 1.10807,1.10756 0.61145,0 1.10756,-0.49611 1.10756,-1.10756 0,-0.61145 -0.49611,-1.10807 -1.10756,-1.10807 z"
         style="fill:#000000;fill-opacity:1;fill-rule:evenodd;stroke:none" />
      <path
         id="path6772"
         d="m 901.6736,787.14932 c -0.27175,4.33033 -1.42302,6.02208 -2.14495,9.00184 l 1.5846,-1.10807 0.86122,1.10706 0.86121,-1.10807 1.49223,1.10756 c -0.84257,-3.00524 -1.90844,-4.6652 -2.14748,-9.00032 z"
         style="fill:#000000;fill-opacity:1;fill-rule:evenodd;stroke:none" />
      <path
         id="path6774"
         d="m 900.17481,786.80302 c -0.61146,0 -1.10807,0.49661 -1.10807,1.10807 0,0.61145 0.49661,1.10756 1.10807,1.10756 0.61145,0 1.10756,-0.49611 1.10756,-1.10756 0,-0.61145 -0.49611,-1.10807 -1.10756,-1.10807 z"
         style="fill:#000000;fill-opacity:1;fill-rule:evenodd;stroke:none" />
      <path
         id="path6776"
         d="m 903.68225,786.75709 c -0.61145,0 -1.10756,0.4961 -1.10756,1.10756 0,0.61145 0.49611,1.10756 1.10756,1.10756 0.61145,0 1.10756,-0.49611 1.10756,-1.10756 0,-0.61146 -0.49611,-1.10757 -1.10756,-1.10756 z"
         style="fill:#000000;fill-opacity:1;fill-rule:evenodd;stroke:none" />
      <path
         id="path6778"
         d="m 911.7615,786.25414 c -0.0381,0.11193 -0.0591,0.23163 -0.0591,0.35639 0,0.12469 0.021,0.24453 0.0591,0.3564 z"
         style="opacity:0;fill:#000000;fill-opacity:1;fill-rule:evenodd;stroke:none" />
      <path
         id="path6780"
         d="m 901.92853,784.48845 c -0.61145,0 -1.10756,0.49611 -1.10756,1.10756 0,0.61146 0.49611,1.10807 1.10756,1.10807 0.61145,0 1.10756,-0.49661 1.10756,-1.10807 0,-0.61145 -0.49611,-1.10756 -1.10756,-1.10756 z"
         style="fill:#000000;fill-opacity:1;fill-rule:evenodd;stroke:none" />
      <path
         id="path6782"
         d="m 907.2634,784.4829 c -0.45311,1.63691 -1.01885,2.93544 -1.43923,4.67053 l 1.58461,-1.10806 0.86121,1.10756 0.86122,-1.10807 1.49222,1.10706 c -0.48998,-1.74766 -1.05521,-3.04058 -1.4897,-4.66902 z"
         style="fill:#000000;fill-opacity:1;fill-rule:evenodd;stroke:none" />
      <path
         id="path6764-0"
         d="m 907.99761,805.70353 c -0.11507,1.83362 -0.38777,3.19421 -0.71886,4.37976 h 1.89658 c -0.31885,-1.18317 -0.56948,-2.54062 -0.67089,-4.37976 z"
         style="fill:#000000;fill-opacity:1;fill-rule:evenodd;stroke:none" />
      <path
         id="path6766-4"
         d="m 906.49831,805.35773 c -0.61145,0 -1.10756,0.49611 -1.10756,1.10756 0,0.61145 0.49611,1.10756 1.10756,1.10756 0.61145,0 1.10807,-0.49611 1.10806,-1.10756 0,-0.61145 -0.49661,-1.10756 -1.10806,-1.10756 z"
         style="fill:#000000;fill-opacity:1;fill-rule:evenodd;stroke:none" />
      <path
         id="path6768-5"
         d="m 910.00626,805.31128 c -0.61146,0 -1.10756,0.49611 -1.10756,1.10757 0,0.61145 0.4961,1.10806 1.10756,1.10806 0.61145,0 1.10756,-0.49661 1.10756,-1.10806 0,-0.61146 -0.49611,-1.10757 -1.10756,-1.10757 z"
         style="fill:#000000;fill-opacity:1;fill-rule:evenodd;stroke:none" />
      <path
         id="path6770-4"
         d="m 908.25254,803.04265 c -0.61146,0 -1.10807,0.49662 -1.10807,1.10807 0,0.61145 0.49661,1.10756 1.10807,1.10756 0.61145,0 1.10756,-0.49611 1.10756,-1.10756 0,-0.61145 -0.49611,-1.10807 -1.10756,-1.10807 z"
         style="fill:#000000;fill-opacity:1;fill-rule:evenodd;stroke:none" />
      <path
         id="path6772-9"
         d="m 901.70208,799.87242 c -0.27175,4.33033 -1.42302,6.02208 -2.14495,9.00184 l 1.5846,-1.10807 0.86122,1.10706 0.86121,-1.10807 1.49223,1.10756 c -0.84257,-3.00524 -1.90844,-4.6652 -2.14748,-9.00032 z"
         style="fill:#000000;fill-opacity:1;fill-rule:evenodd;stroke:none" />
      <path
         id="path6774-5"
         d="m 900.20329,799.52612 c -0.61146,0 -1.10807,0.49661 -1.10807,1.10807 0,0.61145 0.49661,1.10756 1.10807,1.10756 0.61145,0 1.10756,-0.49611 1.10756,-1.10756 0,-0.61145 -0.49611,-1.10807 -1.10756,-1.10807 z"
         style="fill:#000000;fill-opacity:1;fill-rule:evenodd;stroke:none" />
      <path
         id="path6776-6"
         d="m 903.71073,799.48019 c -0.61145,0 -1.10756,0.4961 -1.10756,1.10756 0,0.61145 0.49611,1.10756 1.10756,1.10756 0.61145,0 1.10756,-0.49611 1.10756,-1.10756 0,-0.61146 -0.49611,-1.10757 -1.10756,-1.10756 z"
         style="fill:#000000;fill-opacity:1;fill-rule:evenodd;stroke:none" />
      <path
         id="path6778-4"
         d="m 911.78998,798.97724 c -0.0381,0.11193 -0.0591,0.23163 -0.0591,0.35639 0,0.12469 0.021,0.24453 0.0591,0.3564 z"
         style="opacity:0;fill:#000000;fill-opacity:1;fill-rule:evenodd;stroke:none" />
      <path
         id="path6780-8"
         d="m 901.95701,797.21155 c -0.61145,0 -1.10756,0.49611 -1.10756,1.10756 0,0.61146 0.49611,1.10807 1.10756,1.10807 0.61145,0 1.10756,-0.49661 1.10756,-1.10807 0,-0.61145 -0.49611,-1.10756 -1.10756,-1.10756 z"
         style="fill:#000000;fill-opacity:1;fill-rule:evenodd;stroke:none" />
      <path
         id="path6782-2"
         d="m 907.29188,797.206 c -0.45311,1.63691 -1.01885,2.93544 -1.43923,4.67053 l 1.58461,-1.10806 0.86121,1.10756 0.86122,-1.10807 1.49222,1.10706 c -0.48998,-1.74766 -1.05521,-3.04058 -1.4897,-4.66902 z"
         style="fill:#000000;fill-opacity:1;fill-rule:evenodd;stroke:none" />
      <path
         id="path6764-1"
         d="m 907.98968,818.55042 c -0.11507,1.83362 -0.38777,3.19421 -0.71886,4.37976 h 1.89658 c -0.31885,-1.18317 -0.56948,-2.54062 -0.67089,-4.37976 z"
         style="fill:#000000;fill-opacity:1;fill-rule:evenodd;stroke:none" />
      <path
         id="path6766-6"
         d="m 906.49038,818.20462 c -0.61145,0 -1.10756,0.49611 -1.10756,1.10756 0,0.61145 0.49611,1.10756 1.10756,1.10756 0.61145,0 1.10807,-0.49611 1.10806,-1.10756 0,-0.61145 -0.49661,-1.10756 -1.10806,-1.10756 z"
         style="fill:#000000;fill-opacity:1;fill-rule:evenodd;stroke:none" />
      <path
         id="path6768-8"
         d="m 909.99833,818.15817 c -0.61146,0 -1.10756,0.49611 -1.10756,1.10757 0,0.61145 0.4961,1.10806 1.10756,1.10806 0.61145,0 1.10756,-0.49661 1.10756,-1.10806 0,-0.61146 -0.49611,-1.10757 -1.10756,-1.10757 z"
         style="fill:#000000;fill-opacity:1;fill-rule:evenodd;stroke:none" />
      <path
         id="path6770-3"
         d="m 908.24461,815.88954 c -0.61146,0 -1.10807,0.49662 -1.10807,1.10807 0,0.61145 0.49661,1.10756 1.10807,1.10756 0.61145,0 1.10756,-0.49611 1.10756,-1.10756 0,-0.61145 -0.49611,-1.10807 -1.10756,-1.10807 z"
         style="fill:#000000;fill-opacity:1;fill-rule:evenodd;stroke:none" />
      <path
         id="path6772-1"
         d="m 901.69415,812.71931 c -0.27175,4.33033 -0.88731,3.56672 -1.60924,6.54648 l 1.00425,1.07943 1.03979,0.92849 0.72728,-0.66164 1.49223,1.10756 c -0.84257,-3.00524 -1.90844,-4.6652 -2.14748,-9.00032 z"
         style="fill:#000000;fill-opacity:1;fill-rule:evenodd;stroke:none" />
      <path
         id="path6774-4"
         d="m 900.19536,812.37301 c -0.61146,0 -1.10807,0.49661 -1.10807,1.10807 0,0.61145 0.49661,1.10756 1.10807,1.10756 0.61145,0 1.10756,-0.49611 1.10756,-1.10756 0,-0.61145 -0.49611,-1.10807 -1.10756,-1.10807 z"
         style="fill:#000000;fill-opacity:1;fill-rule:evenodd;stroke:none" />
      <path
         id="path6776-8"
         d="m 903.7028,812.32708 c -0.61145,0 -1.10756,0.4961 -1.10756,1.10756 0,0.61145 0.49611,1.10756 1.10756,1.10756 0.61145,0 1.10756,-0.49611 1.10756,-1.10756 0,-0.61146 -0.49611,-1.10757 -1.10756,-1.10756 z"
         style="fill:#000000;fill-opacity:1;fill-rule:evenodd;stroke:none" />
      <path
         id="path6778-49"
         d="m 911.78205,811.82413 c -0.0381,0.11193 -0.0591,0.23163 -0.0591,0.35639 0,0.12469 0.021,0.24453 0.0591,0.3564 z"
         style="opacity:0;fill:#000000;fill-opacity:1;fill-rule:evenodd;stroke:none" />
      <path
         id="path6780-2"
         d="m 901.94908,810.05844 c -0.61145,0 -1.10756,0.49611 -1.10756,1.10756 0,0.61146 0.49611,1.10807 1.10756,1.10807 0.61145,0 1.10756,-0.49661 1.10756,-1.10807 0,-0.61145 -0.49611,-1.10756 -1.10756,-1.10756 z"
         style="fill:#000000;fill-opacity:1;fill-rule:evenodd;stroke:none" />
      <path
         id="path6782-0"
         d="m 907.28395,810.05289 c -0.45311,1.63691 -1.01885,2.93544 -1.43923,4.67053 l 1.58461,-1.10806 0.86121,1.10756 0.86122,-1.10807 1.49222,1.10706 c -0.48998,-1.74766 -1.05521,-3.04058 -1.4897,-4.66902 z"
         style="fill:#000000;fill-opacity:1;fill-rule:evenodd;stroke:none" />
      <path
         id="path6764-7"
         d="m 920.68083,792.94145 c -0.12049,1.85231 -0.40602,3.22677 -0.7527,4.4244 h 1.98587 c -0.33386,-1.19523 -0.59629,-2.56651 -0.70248,-4.4244 z"
         style="fill:#000000;fill-opacity:1;fill-rule:evenodd;stroke:none" />
      <path
         id="path6766-0"
         d="m 919.14769,792.59565 c -0.61145,0 -1.10756,0.49611 -1.10756,1.10756 0,0.61145 0.49611,1.10756 1.10756,1.10756 0.61145,0 1.10807,-0.49611 1.10806,-1.10756 0,-0.61145 -0.49661,-1.10756 -1.10806,-1.10756 z"
         style="fill:#000000;fill-opacity:1;fill-rule:evenodd;stroke:none" />
      <path
         id="path6768-6"
         d="m 922.65564,792.59384 c -0.61146,0 -1.10756,0.49611 -1.10756,1.10757 0,0.61145 0.4961,1.10806 1.10756,1.10806 0.61145,0 1.10756,-0.49661 1.10756,-1.10806 0,-0.61146 -0.49611,-1.10757 -1.10756,-1.10757 z"
         style="fill:#000000;fill-opacity:1;fill-rule:evenodd;stroke:none" />
      <path
         id="path6770-0"
         d="m 920.90192,790.28057 c -0.61146,0 -1.10807,0.49662 -1.10807,1.10807 0,0.61145 0.49661,1.10756 1.10807,1.10756 0.61145,0 1.10756,-0.49611 1.10756,-1.10756 0,-0.61145 -0.49611,-1.10807 -1.10756,-1.10807 z"
         style="fill:#000000;fill-opacity:1;fill-rule:evenodd;stroke:none" />
      <path
         id="path6772-7"
         d="m 914.35146,787.11034 c -0.27175,4.33033 -1.42302,6.02208 -2.14495,9.00184 l 1.5846,-1.10807 0.86122,1.10706 0.86121,-1.10807 1.49223,1.10756 c -0.84257,-3.00524 -1.90844,-4.6652 -2.14748,-9.00032 z"
         style="fill:#000000;fill-opacity:1;fill-rule:evenodd;stroke:none" />
      <path
         id="path6774-0"
         d="m 912.85267,786.76404 c -0.61146,0 -1.10807,0.49661 -1.10807,1.10807 0,0.61145 0.49661,1.10756 1.10807,1.10756 0.61145,0 1.10756,-0.49611 1.10756,-1.10756 0,-0.61145 -0.49611,-1.10807 -1.10756,-1.10807 z"
         style="fill:#000000;fill-opacity:1;fill-rule:evenodd;stroke:none" />
      <path
         id="path6776-5"
         d="m 916.36011,786.71811 c -0.61145,0 -1.10756,0.4961 -1.10756,1.10756 0,0.61145 0.49611,1.10756 1.10756,1.10756 0.61145,0 1.10756,-0.49611 1.10756,-1.10756 0,-0.61146 -0.49611,-1.10757 -1.10756,-1.10756 z"
         style="fill:#000000;fill-opacity:1;fill-rule:evenodd;stroke:none" />
      <path
         id="path6778-6"
         d="m 924.39472,786.39373 c -0.0381,0.11193 -0.0591,0.23163 -0.0591,0.35639 0,0.12469 0.021,0.24453 0.0591,0.3564 z"
         style="opacity:0;fill:#000000;fill-opacity:1;fill-rule:evenodd;stroke:none" />
      <path
         id="path6780-7"
         d="m 914.60639,784.44947 c -0.61145,0 -1.10756,0.49611 -1.10756,1.10756 0,0.61146 0.49611,1.10807 1.10756,1.10807 0.61145,0 1.10756,-0.49661 1.10756,-1.10807 0,-0.61145 -0.49611,-1.10756 -1.10756,-1.10756 z"
         style="fill:#000000;fill-opacity:1;fill-rule:evenodd;stroke:none" />
      <path
         id="path6782-3"
         d="m 919.94126,784.44392 c -0.45311,1.63691 -1.01885,2.93544 -1.43923,4.67053 l 1.58461,-1.10806 0.86121,1.10756 0.86122,-1.10807 1.49222,1.10706 c -0.48998,-1.74766 -1.05521,-3.04058 -1.4897,-4.66902 z"
         style="fill:#000000;fill-opacity:1;fill-rule:evenodd;stroke:none" />
      <path
         id="path6764-0-8"
         d="m 920.67547,805.66455 c -0.11507,1.83362 -0.38777,3.19421 -0.71886,4.37976 h 1.89658 c -0.31885,-1.18317 -0.56948,-2.54062 -0.67089,-4.37976 z"
         style="fill:#000000;fill-opacity:1;fill-rule:evenodd;stroke:none" />
      <path
         id="path6766-4-4"
         d="m 919.17617,805.31875 c -0.61145,0 -1.10756,0.49611 -1.10756,1.10756 0,0.61145 0.49611,1.10756 1.10756,1.10756 0.61145,0 1.10807,-0.49611 1.10806,-1.10756 0,-0.61145 -0.49661,-1.10756 -1.10806,-1.10756 z"
         style="fill:#000000;fill-opacity:1;fill-rule:evenodd;stroke:none" />
      <path
         id="path6768-5-9"
         d="m 922.68412,805.31694 c -0.61146,0 -1.10756,0.49611 -1.10756,1.10757 0,0.61145 0.4961,1.10806 1.10756,1.10806 0.61145,0 1.10756,-0.49661 1.10756,-1.10806 0,-0.61146 -0.49611,-1.10757 -1.10756,-1.10757 z"
         style="fill:#000000;fill-opacity:1;fill-rule:evenodd;stroke:none" />
      <path
         id="path6770-4-2"
         d="m 920.9304,803.00367 c -0.61146,0 -1.10807,0.49662 -1.10807,1.10807 0,0.61145 0.49661,1.10756 1.10807,1.10756 0.61145,0 1.10756,-0.49611 1.10756,-1.10756 0,-0.61145 -0.49611,-1.10807 -1.10756,-1.10807 z"
         style="fill:#000000;fill-opacity:1;fill-rule:evenodd;stroke:none" />
      <path
         id="path6772-9-6"
         d="m 914.37994,799.83344 c -0.27175,4.33033 -1.42302,6.02208 -2.14495,9.00184 l 1.5846,-1.10807 0.86122,1.10706 0.86121,-1.10807 1.49223,1.10756 c -0.84257,-3.00524 -1.90844,-4.6652 -2.14748,-9.00032 z"
         style="fill:#000000;fill-opacity:1;fill-rule:evenodd;stroke:none" />
      <path
         id="path6774-5-5"
         d="m 912.88115,799.48714 c -0.61146,0 -1.10807,0.49661 -1.10807,1.10807 0,0.61145 0.49661,1.10756 1.10807,1.10756 0.61145,0 1.10756,-0.49611 1.10756,-1.10756 0,-0.61145 -0.49611,-1.10807 -1.10756,-1.10807 z"
         style="fill:#000000;fill-opacity:1;fill-rule:evenodd;stroke:none" />
      <path
         id="path6776-6-7"
         d="m 916.38859,799.44121 c -0.61145,0 -1.10756,0.4961 -1.10756,1.10756 0,0.61145 0.49611,1.10756 1.10756,1.10756 0.61145,0 1.10756,-0.49611 1.10756,-1.10756 0,-0.61146 -0.49611,-1.10757 -1.10756,-1.10756 z"
         style="fill:#000000;fill-opacity:1;fill-rule:evenodd;stroke:none" />
      <path
         id="path6778-4-7"
         d="m 924.4232,799.11683 c -0.0381,0.11193 -0.0591,0.23163 -0.0591,0.35639 0,0.12469 0.021,0.24453 0.0591,0.3564 z"
         style="opacity:0;fill:#000000;fill-opacity:1;fill-rule:evenodd;stroke:none" />
      <path
         id="path6780-8-4"
         d="m 914.63487,797.17257 c -0.61145,0 -1.10756,0.49611 -1.10756,1.10756 0,0.61146 0.49611,1.10807 1.10756,1.10807 0.61145,0 1.10756,-0.49661 1.10756,-1.10807 0,-0.61145 -0.49611,-1.10756 -1.10756,-1.10756 z"
         style="fill:#000000;fill-opacity:1;fill-rule:evenodd;stroke:none" />
      <path
         id="path6782-2-5"
         d="m 919.96974,797.16702 c -0.45311,1.63691 -1.01885,2.93544 -1.43923,4.67053 l 1.58461,-1.10806 0.86121,1.10756 0.86122,-1.10807 1.49222,1.10706 c -0.48998,-1.74766 -1.05521,-3.04058 -1.4897,-4.66902 z"
         style="fill:#000000;fill-opacity:1;fill-rule:evenodd;stroke:none" />
      <path
         id="path6764-1-7"
         d="m 920.66754,818.51144 c -0.11507,1.83362 -0.38777,3.19421 -0.71886,4.37976 h 1.89658 c -0.31885,-1.18317 -0.56948,-2.54062 -0.67089,-4.37976 z"
         style="fill:#000000;fill-opacity:1;fill-rule:evenodd;stroke:none" />
      <path
         id="path6766-6-9"
         d="m 919.16824,818.16564 c -0.61145,0 -1.10756,0.49611 -1.10756,1.10756 0,0.61145 0.49611,1.10756 1.10756,1.10756 0.61145,0 1.10807,-0.49611 1.10806,-1.10756 0,-0.61145 -0.49661,-1.10756 -1.10806,-1.10756 z"
         style="fill:#000000;fill-opacity:1;fill-rule:evenodd;stroke:none" />
      <path
         id="path6768-8-8"
         d="m 922.67619,818.16383 c -0.61146,0 -1.10756,0.49611 -1.10756,1.10757 0,0.61145 0.4961,1.10806 1.10756,1.10806 0.61145,0 1.10756,-0.49661 1.10756,-1.10806 0,-0.61146 -0.49611,-1.10757 -1.10756,-1.10757 z"
         style="fill:#000000;fill-opacity:1;fill-rule:evenodd;stroke:none" />
      <path
         id="path6770-3-3"
         d="m 920.92247,815.85056 c -0.61146,0 -1.10807,0.49662 -1.10807,1.10807 0,0.61145 0.49661,1.10756 1.10807,1.10756 0.61145,0 1.10756,-0.49611 1.10756,-1.10756 0,-0.61145 -0.49611,-1.10807 -1.10756,-1.10807 z"
         style="fill:#000000;fill-opacity:1;fill-rule:evenodd;stroke:none" />
      <path
         id="path6772-1-0"
         d="m 914.37201,812.68033 c -0.27175,4.33033 -1.42302,6.02208 -2.14495,9.00184 l 1.5846,-1.10807 0.86122,1.10706 0.86121,-1.10807 1.49223,1.10756 c -0.84257,-3.00524 -1.90844,-4.6652 -2.14748,-9.00032 z"
         style="fill:#000000;fill-opacity:1;fill-rule:evenodd;stroke:none" />
      <path
         id="path6774-4-2"
         d="m 912.87322,812.33403 c -0.61146,0 -1.10807,0.49661 -1.10807,1.10807 0,0.61145 0.49661,1.10756 1.10807,1.10756 0.61145,0 1.10756,-0.49611 1.10756,-1.10756 0,-0.61145 -0.49611,-1.10807 -1.10756,-1.10807 z"
         style="fill:#000000;fill-opacity:1;fill-rule:evenodd;stroke:none" />
      <path
         id="path6776-8-2"
         d="m 916.38066,812.2881 c -0.61145,0 -1.10756,0.4961 -1.10756,1.10756 0,0.61145 0.49611,1.10756 1.10756,1.10756 0.61145,0 1.10756,-0.49611 1.10756,-1.10756 0,-0.61146 -0.49611,-1.10757 -1.10756,-1.10756 z"
         style="fill:#000000;fill-opacity:1;fill-rule:evenodd;stroke:none" />
      <path
         id="path6778-49-3"
         d="m 924.41527,811.96372 c -0.0381,0.11193 -0.0591,0.23163 -0.0591,0.35639 0,0.12469 0.021,0.24453 0.0591,0.3564 z"
         style="opacity:0;fill:#000000;fill-opacity:1;fill-rule:evenodd;stroke:none" />
      <path
         id="path6780-2-6"
         d="m 914.62694,810.01946 c -0.61145,0 -1.10756,0.49611 -1.10756,1.10756 0,0.61146 0.49611,1.10807 1.10756,1.10807 0.61145,0 1.10756,-0.49661 1.10756,-1.10807 0,-0.61145 -0.49611,-1.10756 -1.10756,-1.10756 z"
         style="fill:#000000;fill-opacity:1;fill-rule:evenodd;stroke:none" />
      <path
         id="path6782-0-7"
         d="m 919.96181,810.01391 c -0.45311,1.63691 -1.01885,2.93544 -1.43923,4.67053 l 1.58461,-1.10806 0.86121,1.10756 0.86122,-1.10807 1.49222,1.10706 c -0.48998,-1.74766 -1.05521,-3.04058 -1.4897,-4.66902 z"
         style="fill:#000000;fill-opacity:1;fill-rule:evenodd;stroke:none" />
      <path
         id="path6764-15"
         d="m 933.2943,792.97532 c -0.11778,1.81493 -0.3969,3.16165 -0.73578,4.33512 h 1.94122 c -0.32635,-1.17111 -0.58288,-2.51473 -0.68668,-4.33512 z"
         style="fill:#000000;fill-opacity:1;fill-rule:evenodd;stroke:none" />
      <path
         id="path6766-5"
         d="m 931.77808,792.62952 c -0.61145,0 -1.10756,0.49611 -1.10756,1.10756 0,0.61145 0.49611,1.10756 1.10756,1.10756 0.61145,0 1.10807,-0.49611 1.10806,-1.10756 0,-0.61145 -0.49661,-1.10756 -1.10806,-1.10756 z"
         style="fill:#000000;fill-opacity:1;fill-rule:evenodd;stroke:none" />
      <path
         id="path6768-4"
         d="m 935.28603,792.58307 c -0.61146,0 -1.10756,0.49611 -1.10756,1.10757 0,0.61145 0.4961,1.10806 1.10756,1.10806 0.61145,0 1.10756,-0.49661 1.10756,-1.10806 0,-0.61146 -0.49611,-1.10757 -1.10756,-1.10757 z"
         style="fill:#000000;fill-opacity:1;fill-rule:evenodd;stroke:none" />
      <path
         id="path6770-02"
         d="m 933.53231,790.31444 c -0.61146,0 -1.10807,0.49662 -1.10807,1.10807 0,0.61145 0.49661,1.10756 1.10807,1.10756 0.61145,0 1.10756,-0.49611 1.10756,-1.10756 0,-0.61145 -0.49611,-1.10807 -1.10756,-1.10807 z"
         style="fill:#000000;fill-opacity:1;fill-rule:evenodd;stroke:none" />
      <path
         id="path6772-6"
         d="m 926.98185,787.14421 c -0.27175,4.33033 -1.42302,6.02208 -2.14495,9.00184 l 1.5846,-1.10807 0.86122,1.10706 0.86121,-1.10807 1.49223,1.10756 c -0.84257,-3.00524 -1.90844,-4.6652 -2.14748,-9.00032 z"
         style="fill:#000000;fill-opacity:1;fill-rule:evenodd;stroke:none" />
      <path
         id="path6774-06"
         d="m 925.48306,786.79791 c -0.61146,0 -1.10807,0.49661 -1.10807,1.10807 0,0.61145 0.49661,1.10756 1.10807,1.10756 0.61145,0 1.10756,-0.49611 1.10756,-1.10756 0,-0.61145 -0.49611,-1.10807 -1.10756,-1.10807 z"
         style="fill:#000000;fill-opacity:1;fill-rule:evenodd;stroke:none" />
      <path
         id="path6776-1"
         d="m 928.9905,786.75198 c -0.61145,0 -1.10756,0.4961 -1.10756,1.10756 0,0.61145 0.49611,1.10756 1.10756,1.10756 0.61145,0 1.10756,-0.49611 1.10756,-1.10756 0,-0.61146 -0.49611,-1.10757 -1.10756,-1.10756 z"
         style="fill:#000000;fill-opacity:1;fill-rule:evenodd;stroke:none" />
      <path
         id="path6778-1"
         d="m 937.02511,786.38296 c -0.0381,0.11193 -0.0591,0.23163 -0.0591,0.35639 0,0.12469 0.021,0.24453 0.0591,0.3564 z"
         style="opacity:0;fill:#000000;fill-opacity:1;fill-rule:evenodd;stroke:none" />
      <path
         id="path6780-1"
         d="m 927.23678,784.48334 c -0.61145,0 -1.10756,0.49611 -1.10756,1.10756 0,0.61146 0.49611,1.10807 1.10756,1.10807 0.61145,0 1.10756,-0.49661 1.10756,-1.10807 0,-0.61145 -0.49611,-1.10756 -1.10756,-1.10756 z"
         style="fill:#000000;fill-opacity:1;fill-rule:evenodd;stroke:none" />
      <path
         id="path6782-7"
         d="m 932.57165,784.47779 c -0.45311,1.63691 -1.01885,2.93544 -1.43923,4.67053 l 1.58461,-1.10806 0.86121,1.10756 0.86122,-1.10807 1.49222,1.10706 c -0.48998,-1.74766 -1.05521,-3.04058 -1.4897,-4.66902 z"
         style="fill:#000000;fill-opacity:1;fill-rule:evenodd;stroke:none" />
      <path
         id="path6764-0-3"
         d="m 933.30586,805.69842 c -0.11507,1.83362 -0.38777,3.19421 -0.71886,4.37976 h 1.89658 c -0.31885,-1.18317 -0.56948,-2.54062 -0.67089,-4.37976 z"
         style="fill:#000000;fill-opacity:1;fill-rule:evenodd;stroke:none" />
      <path
         id="path6766-4-0"
         d="m 931.80656,805.35262 c -0.61145,0 -1.10756,0.49611 -1.10756,1.10756 0,0.61145 0.49611,1.10756 1.10756,1.10756 0.61145,0 1.10807,-0.49611 1.10806,-1.10756 0,-0.61145 -0.49661,-1.10756 -1.10806,-1.10756 z"
         style="fill:#000000;fill-opacity:1;fill-rule:evenodd;stroke:none" />
      <path
         id="path6768-5-0"
         d="m 935.31451,805.30617 c -0.61146,0 -1.10756,0.49611 -1.10756,1.10757 0,0.61145 0.4961,1.10806 1.10756,1.10806 0.61145,0 1.10756,-0.49661 1.10756,-1.10806 0,-0.61146 -0.49611,-1.10757 -1.10756,-1.10757 z"
         style="fill:#000000;fill-opacity:1;fill-rule:evenodd;stroke:none" />
      <path
         id="path6770-4-4"
         d="m 933.56079,803.03754 c -0.61146,0 -1.10807,0.49662 -1.10807,1.10807 0,0.61145 0.49661,1.10756 1.10807,1.10756 0.61145,0 1.10756,-0.49611 1.10756,-1.10756 0,-0.61145 -0.49611,-1.10807 -1.10756,-1.10807 z"
         style="fill:#000000;fill-opacity:1;fill-rule:evenodd;stroke:none" />
      <path
         id="path6772-9-8"
         d="m 927.01033,799.86731 c -0.27175,4.33033 -1.42302,6.02208 -2.14495,9.00184 l 1.5846,-1.10807 0.86122,1.10706 0.86121,-1.10807 1.49223,1.10756 c -0.84257,-3.00524 -1.90844,-4.6652 -2.14748,-9.00032 z"
         style="fill:#000000;fill-opacity:1;fill-rule:evenodd;stroke:none" />
      <path
         id="path6774-5-3"
         d="m 925.51154,799.52101 c -0.61146,0 -1.10807,0.49661 -1.10807,1.10807 0,0.61145 0.49661,1.10756 1.10807,1.10756 0.61145,0 1.10756,-0.49611 1.10756,-1.10756 0,-0.61145 -0.49611,-1.10807 -1.10756,-1.10807 z"
         style="fill:#000000;fill-opacity:1;fill-rule:evenodd;stroke:none" />
      <path
         id="path6776-6-0"
         d="m 929.01898,799.47508 c -0.61145,0 -1.10756,0.4961 -1.10756,1.10756 0,0.61145 0.49611,1.10756 1.10756,1.10756 0.61145,0 1.10756,-0.49611 1.10756,-1.10756 0,-0.61146 -0.49611,-1.10757 -1.10756,-1.10756 z"
         style="fill:#000000;fill-opacity:1;fill-rule:evenodd;stroke:none" />
      <path
         id="path6778-4-1"
         d="m 937.05359,799.10606 c -0.0381,0.11193 -0.0591,0.23163 -0.0591,0.35639 0,0.12469 0.021,0.24453 0.0591,0.3564 z"
         style="opacity:0;fill:#000000;fill-opacity:1;fill-rule:evenodd;stroke:none" />
      <path
         id="path6780-8-2"
         d="m 927.26526,797.20644 c -0.61145,0 -1.10756,0.49611 -1.10756,1.10756 0,0.61146 0.49611,1.10807 1.10756,1.10807 0.61145,0 1.10756,-0.49661 1.10756,-1.10807 0,-0.61145 -0.49611,-1.10756 -1.10756,-1.10756 z"
         style="fill:#000000;fill-opacity:1;fill-rule:evenodd;stroke:none" />
      <path
         id="path6782-2-9"
         d="m 932.60013,797.20089 c -0.45311,1.63691 -1.01885,2.93544 -1.43923,4.67053 l 1.58461,-1.10806 0.86121,1.10756 0.86122,-1.10807 1.49222,1.10706 c -0.48998,-1.74766 -1.05521,-3.04058 -1.4897,-4.66902 z"
         style="fill:#000000;fill-opacity:1;fill-rule:evenodd;stroke:none" />
      <path
         id="path6764-1-0"
         d="m 933.29793,818.54531 c -1.27457,4.99262 1.09112,2.21388 0.50683,0 z"
         style="fill:#000000;fill-opacity:1;fill-rule:evenodd;stroke:none" />
      <path
         id="path6766-6-3"
         d="m 931.79863,818.19951 c -0.61145,0 -1.10756,0.49611 -1.10756,1.10756 0,0.61145 0.49611,1.10756 1.10756,1.10756 0.61145,0 1.10807,-0.49611 1.10806,-1.10756 0,-0.61145 -0.49661,-1.10756 -1.10806,-1.10756 z"
         style="fill:#000000;fill-opacity:1;fill-rule:evenodd;stroke:none" />
      <path
         id="path6768-8-88"
         d="m 935.30658,818.15306 c -0.61146,0 -1.10756,0.49611 -1.10756,1.10757 0,0.61145 -0.0396,0.17056 0.57184,0.17056 0.61145,0 0.43792,-0.18411 0.43792,-0.79556 0,-0.61146 0.70925,-0.48257 0.0978,-0.48257 z"
         style="fill:#000000;fill-opacity:1;fill-rule:evenodd;stroke:none" />
      <path
         id="path6770-3-5"
         d="m 933.55286,815.88443 c -0.61146,0 -1.10807,0.49662 -1.10807,1.10807 0,0.61145 0.49661,1.10756 1.10807,1.10756 0.61145,0 1.10756,-0.49611 1.10756,-1.10756 0,-0.61145 -0.49611,-1.10807 -1.10756,-1.10807 z"
         style="fill:#000000;fill-opacity:1;fill-rule:evenodd;stroke:none" />
      <path
         id="path6772-1-7"
         d="m 927.0024,812.7142 c -0.27175,4.33033 -1.42302,6.02208 -2.14495,9.00184 l 1.5846,-1.10807 0.86122,1.10706 0.86121,-1.10807 1.49223,1.10756 c -0.84257,-3.00524 -1.90844,-4.6652 -2.14748,-9.00032 z"
         style="fill:#000000;fill-opacity:1;fill-rule:evenodd;stroke:none" />
      <path
         id="path6774-4-7"
         d="m 925.50361,812.3679 c -0.61146,0 -1.10807,0.49661 -1.10807,1.10807 0,0.61145 0.49661,1.10756 1.10807,1.10756 0.61145,0 1.10756,-0.49611 1.10756,-1.10756 0,-0.61145 -0.49611,-1.10807 -1.10756,-1.10807 z"
         style="fill:#000000;fill-opacity:1;fill-rule:evenodd;stroke:none" />
      <path
         id="path6776-8-0"
         d="m 929.01105,812.32197 c -0.61145,0 -1.10756,0.4961 -1.10756,1.10756 0,0.61145 0.49611,1.10756 1.10756,1.10756 0.61145,0 1.10756,-0.49611 1.10756,-1.10756 0,-0.61146 -0.49611,-1.10757 -1.10756,-1.10756 z"
         style="fill:#000000;fill-opacity:1;fill-rule:evenodd;stroke:none" />
      <path
         id="path6778-49-8"
         d="m 937.04566,811.95295 c -0.0381,0.11193 -0.0591,0.23163 -0.0591,0.35639 0,0.12469 0.021,0.24453 0.0591,0.3564 z"
         style="opacity:0;fill:#000000;fill-opacity:1;fill-rule:evenodd;stroke:none" />
      <path
         id="path6780-2-9"
         d="m 927.25733,810.05333 c -0.61145,0 -1.10756,0.49611 -1.10756,1.10756 0,0.61146 0.49611,1.10807 1.10756,1.10807 0.61145,0 1.10756,-0.49661 1.10756,-1.10807 0,-0.61145 -0.49611,-1.10756 -1.10756,-1.10756 z"
         style="fill:#000000;fill-opacity:1;fill-rule:evenodd;stroke:none" />
      <path
         id="path6782-0-3"
         d="m 932.5922,810.04778 c -0.45311,1.63691 -1.01885,2.93544 -1.43923,4.67053 l 1.58461,-1.10806 0.86121,1.10756 0.86122,-1.10807 1.49222,1.10706 c -0.48998,-1.74766 -1.05521,-3.04058 -1.4897,-4.66902 z"
         style="fill:#000000;fill-opacity:1;fill-rule:evenodd;stroke:none" />
    </g>
  </g>
</svg>
